{"title":"Burden.of.Evil.2012.VODRIP.XviD.Feel-Free","uid":7167559,"size":1017787583,"categoryP":"video","categoryS":"movies","magnet":"?xt=urn:btih:fa63ba7bf9aee9af69d68619f8c60e0e20414d6f&amp;dn=Burden.of.Evil.2012.VODRIP.XviD.Feel-Free&amp;tr=udp%3A%2F%2Ftracker.openbittorrent.com%3A80&amp;tr=udp%3A%2F%2Fopen.demonii.com%3A1337&amp;tr=udp%3A%2F%2Ftracker.coppersurfer.tk%3A6969&amp;tr=udp%3A%2F%2Fexodus.desync.com%3A6969","seeders":1,"leechers":1,"uploader":".BONE.","files":8,"time":1333831847,"description":"Genre:Thriller\nLanguage:English &lt;a href=&quot;\nhttp://www.imdb.com/title/tt2226309/&quot; rel=&quot;nofollow&quot; target=&quot;_NEW&quot;&gt;\nhttp://www.imdb.com/title/tt2226309/&lt;/a&gt;\nSource:NoGRP Thanks!\nEncoder:Tony\n\nFormat : AVI\nFormat/Info : Audio Video Interleave\nFile size : 969 MiB\nDuration : 1h 30mn\nOverall bit rate mode : Variable\nOverall bit rate : 1 504 Kbps\n\nVideo\nID : 0\nFormat : MPEG-4 Visual\nFormat profile : Advanced Simple@L5\nFormat settings, BVOP : 2\nFormat settings, QPel : No\nFormat settings, GMC : No warppoints\nFormat settings, Matrix : Default (H.263)\nMuxing mode : Packed bitstream\nCodec ID : XVID\nCodec ID/Hint : XviD\nDuration : 1h 30mn\nBit rate : 1 368 Kbps\nWidth : 720 pixels\nHeight : 384 pixels\nDisplay aspect ratio : 1.875\nFrame rate : 30.000 fps\nColor space : YUV\nChroma subsampling : 4:2:0\nBit depth : 8 bits\nScan type : Progressive\nCompression mode : Lossy\nBits/(Pixel*Frame) : 0.165\nStream size : 882 MiB (91%)\nWriting library : XviD 62\n\nAudio\nID : 1\nFormat : MPEG Audio\nFormat version : Version 1\nFormat profile : Layer 3\nMode : Joint stereo\nMode extension : MS Stereo\nCodec ID : 55\nCodec ID/Hint : MP3\nDuration : 1h 30mn\nBit rate mode : Variable\nBit rate : 122 Kbps\nChannel(s) : 2 channels\nSampling rate : 44.1 KHz\nCompression mode : Lossy\nStream size : 78.7 MiB (8%)\nAlignment : Aligned on interleaves\nInterleave, duration : 26 ms (0.78 video frame)\nInterleave, preload duration : 567 ms\n\n\nPlot:\nWhen the daughter of a powerful senator is kidnapped by a psychopath, the senator requests a particular homicide detective..\n","torrent":{"xt":"urn:btih:fa63ba7bf9aee9af69d68619f8c60e0e20414d6f","amp;dn":"Burden.of.Evil.2012.VODRIP.XviD.Feel-Free","amp;tr":["udp%3A%2F%2Ftracker.openbittorrent.com%3A80","udp%3A%2F%2Fopen.demonii.com%3A1337","udp%3A%2F%2Ftracker.coppersurfer.tk%3A6969","udp%3A%2F%2Fexodus.desync.com%3A6969"],"infoHash":"fa63ba7bf9aee9af69d68619f8c60e0e20414d6f","infoHashBuffer":{"type":"Buffer","data":[250,99,186,123,249,174,233,175,105,214,134,25,248,198,14,14,32,65,77,111]},"announce":[],"urlList":[]}}